<?xml version="1.0" encoding="utf-8"?>
<!-- Generator: Adobe Illustrator 15.0.0, SVG Export Plug-In . SVG Version: 6.00 Build 0)  -->
<!DOCTYPE svg PUBLIC "-//W3C//DTD SVG 1.1//EN" "http://www.w3.org/Graphics/SVG/1.1/DTD/svg11.dtd">
<svg version="1.1" id="Layer_1" xmlns="http://www.w3.org/2000/svg" xmlns:xlink="http://www.w3.org/1999/xlink" x="0px" y="0px"
	 width="493.5px" height="104px" viewBox="0 0 493.5 104" enable-background="new 0 0 493.5 104" xml:space="preserve">
<g>
	<path fill="#333333" d="M74.883,8.684l0.64,0.64V17.9l-0.64,0.64H44.674v79.107l-0.64,0.64H35.33l-0.64-0.64V18.541H4.48L3.84,17.9
		V9.324l0.64-0.64H74.883z"/>
</g>
<g>
	<path fill="#333333" d="M92.177,28.9l0.36,0.36v26.282c0,10.585,6.265,16.058,13.969,16.058c7.633,0,13.897-5.473,13.897-16.058
		V29.26l0.36-0.36h7.705l0.36,0.36v27.723c0,14.761-10.081,23.402-22.322,23.402s-22.322-8.641-22.322-23.402V29.26l0.36-0.36
		H92.177z"/>
	<path fill="#333333" d="M151.937,28.9c9.793,0,16.49,5.041,16.49,13.249c0,4.104-1.944,6.913-4.608,8.569
		c5.976,2.232,9.217,7.272,9.217,13.105c0,9.217-7.201,15.481-16.778,15.481h-16.777l-0.36-0.36V29.26l0.36-0.36H151.937z
		 M147.472,48.341h4.464c4.825,0,6.985-1.8,6.985-5.76c0-3.457-2.16-5.256-6.985-5.256h-4.464V48.341z M147.472,70.879h8.497
		c4.681,0,7.633-2.448,7.633-7.057c0-4.392-2.952-7.057-7.633-7.057h-8.497V70.879z"/>
	<path fill="#333333" d="M212.922,28.9l0.36,0.36v7.705l-0.36,0.36H189.16v10.657h17.642l0.36,0.36v7.705l-0.36,0.36H189.16v14.473
		h25.274l0.36,0.36v7.705l-0.36,0.36h-33.267l-0.36-0.36V29.26l0.36-0.36H212.922z"/>
	<path fill="#333333" d="M238.408,28.9c10.657,0,17.569,7.128,17.569,15.77c0,8.641-6.912,15.769-17.569,15.769h-7.489v18.506
		l-0.36,0.36h-7.633l-0.36-0.36V29.26l0.288-0.36H238.408z M230.919,52.086h7.129c5.112,0,8.424-2.88,8.424-7.417
		c0-4.537-3.312-7.345-8.424-7.345h-7.129V52.086z"/>
	<path fill="#333333" d="M279.736,28.9l0.359,0.36l19.658,49.685l-0.36,0.36h-8.856l-0.36-0.36l-4.176-10.945h-20.522l-4.248,10.945
		l-0.359,0.36h-8.857l-0.359-0.36l19.729-49.685l0.359-0.36H279.736z M268.503,59.646h14.474l-7.272-19.442L268.503,59.646z"/>
	<path fill="#333333" d="M321.494,28.9c10.657,0,17.57,7.128,17.57,15.77c0,8.641-6.913,15.769-17.57,15.769h-7.488v18.506
		l-0.36,0.36h-7.632l-0.36-0.36V29.26l0.288-0.36H321.494z M314.006,52.086h7.129c5.112,0,8.425-2.88,8.425-7.417
		c0-4.537-3.312-7.345-8.425-7.345h-7.129V52.086z"/>
	<path fill="#333333" d="M378.52,28.9l0.36,0.36v7.705l-0.36,0.36h-23.762v10.657h17.642l0.36,0.36v7.705l-0.36,0.36h-17.642v14.473
		h25.274l0.36,0.36v7.705l-0.36,0.36h-33.267l-0.36-0.36V29.26l0.36-0.36H378.52z"/>
	<path fill="#333333" d="M402.205,28.9c10.441,0,16.922,6.409,16.922,14.689c0,5.76-3.097,10.369-8.065,12.529l16.85,22.826
		l-0.359,0.36h-9.865l-0.36-0.36l-15.481-20.666h-5.328v20.666l-0.36,0.36h-7.632l-0.36-0.36V29.26l0.36-0.36H402.205z
		 M396.517,49.926h5.688c4.681,0,7.417-2.304,7.417-6.336c0-4.033-2.736-6.265-7.417-6.265h-5.688V49.926z"/>
</g>
<g>
	<path fill="#333333" d="M472.674,25.453c-3.968-5.248-7.68-8.32-13.824-8.32c-6.528,0-11.648,4.992-11.648,11.904
		c0,15.233,40.961,14.721,40.961,43.138c0,15.489-12.544,28.033-28.033,28.033c-12.8,0-22.4-7.04-26.881-18.561l7.168-5.632h1.281
		c3.84,9.088,9.984,13.825,18.432,13.825c9.602,0,16.77-7.553,16.77-17.665c0-19.457-41.09-18.561-41.09-43.138
		c0-12.289,10.112-22.273,23.041-22.273c10.24,0,17.921,5.76,22.4,13.441l-7.296,5.248H472.674z"/>
</g>
<polygon fill="#333333" points="83.386,8.712 88.361,13.688 83.458,18.59 126.39,18.59 121.486,13.688 126.462,8.712 
	131.438,13.688 126.535,18.59 169.467,18.59 164.563,13.688 169.54,8.712 174.515,13.688 169.612,18.59 212.543,18.59 
	207.64,13.688 212.616,8.712 217.592,13.688 212.689,18.59 255.621,18.59 250.717,13.688 255.693,8.712 260.669,13.688 
	255.766,18.59 298.697,18.59 293.794,13.688 298.77,8.712 303.746,13.688 298.842,18.59 341.773,18.59 336.871,13.688 
	341.847,8.712 346.823,13.688 341.92,18.59 384.85,18.59 379.947,13.688 384.923,8.712 389.899,13.688 384.996,18.59 427.928,18.59 
	423.024,13.688 428,8.712 428,8.712 83.385,8.712 83.385,8.713 "/>
<polygon fill="#333333" points="83.386,88.046 88.361,93.021 83.458,97.924 126.39,97.924 121.486,93.021 126.462,88.046 
	131.438,93.021 126.535,97.924 169.467,97.924 164.563,93.021 169.54,88.046 174.515,93.021 169.612,97.924 212.543,97.924 
	207.64,93.021 212.616,88.046 217.592,93.021 212.689,97.924 255.621,97.924 250.717,93.021 255.693,88.046 260.669,93.021 
	255.766,97.924 298.697,97.924 293.794,93.021 298.77,88.046 303.746,93.021 298.842,97.924 341.773,97.924 336.871,93.021 
	341.847,88.046 346.823,93.021 341.92,97.924 384.85,97.924 379.947,93.021 384.923,88.046 389.899,93.021 384.996,97.924 
	427.928,97.924 423.024,93.021 428,88.046 428,88.045 83.385,88.045 83.385,88.046 "/>
</svg>
