<svg xmlns="http://www.w3.org/2000/svg" width="464.323" height="93.443" viewBox="23.84 0 464.323 93.443" enable-background="new 23.84 0 464.323 93.443"><path fill="#333" d="M472.674 18.689c-3.968-5.248-7.68-8.32-13.824-8.32-6.527 0-11.647 4.992-11.647 11.904 0 15.233 40.961 14.721 40.961 43.137 0 15.49-12.544 28.033-28.033 28.033-12.8 0-22.399-7.039-26.881-18.561l7.168-5.631h1.281c3.84 9.088 9.983 13.824 18.432 13.824 9.603 0 16.771-7.553 16.771-17.666 0-19.457-41.091-18.561-41.091-43.137-.001-12.288 10.111-22.272 23.04-22.272 10.24 0 17.921 5.76 22.4 13.441l-7.296 5.248h-1.281zM402.205 22.136c10.441 0 16.922 6.409 16.922 14.689 0 5.76-3.097 10.369-8.064 12.529l16.85 22.826-.359.361h-9.865l-.359-.361-15.481-20.667h-5.328v20.667l-.359.361h-7.632l-.36-.361v-49.684l.36-.36h13.675zm-5.688 21.026h5.688c4.681 0 7.417-2.304 7.417-6.336 0-4.033-2.736-6.265-7.417-6.265h-5.688v12.601zM378.52 22.136l.36.36v7.705l-.36.36h-23.762v10.657h17.642l.359.36v7.705l-.359.36h-17.643v14.472h25.274l.36.361v7.705l-.36.359h-33.267l-.361-.359v-49.685l.361-.36h31.756zM321.494 22.136c10.656 0 17.57 7.128 17.57 15.77 0 8.641-6.914 15.77-17.57 15.77h-7.488v18.506l-.359.359h-7.633l-.359-.359v-49.686l.287-.36h15.552zm-7.488 23.186h7.129c5.112 0 8.426-2.88 8.426-7.417s-3.312-7.345-8.426-7.345h-7.129v14.762zM279.736 22.136l.359.36 19.657 49.686-.36.359h-8.855l-.359-.359-4.177-10.945h-20.522l-4.248 10.945-.358.359h-8.856l-.359-.359 19.729-49.686.359-.36h7.99zm-11.233 30.747h14.474l-7.271-19.443-7.203 19.443zM238.408 22.136c10.656 0 17.568 7.128 17.568 15.77 0 8.641-6.912 15.77-17.568 15.77h-7.489v18.506l-.36.359h-7.633l-.36-.359v-49.686l.288-.36h15.554zm-7.489 23.186h7.129c5.112 0 8.425-2.88 8.425-7.417s-3.312-7.345-8.425-7.345h-7.129v14.762zM212.922 22.136l.36.36v7.705l-.36.36h-23.762v10.657h17.642l.36.36v7.705l-.36.36h-17.642v14.472h25.274l.36.361v7.705l-.36.359h-33.267l-.36-.359v-49.685l.36-.36h31.755zM151.937 22.136c9.793 0 16.49 5.041 16.49 13.249 0 4.104-1.944 6.913-4.608 8.569 5.976 2.232 9.217 7.272 9.217 13.105 0 9.217-7.201 15.482-16.778 15.482h-16.777l-.36-.361v-49.684l.36-.36h12.456zm-4.465 19.441h4.464c4.825 0 6.985-1.8 6.985-5.76 0-3.457-2.16-5.256-6.985-5.256h-4.464v11.016zm0 22.538h8.497c4.681 0 7.633-2.447 7.633-7.057 0-4.393-2.952-7.057-7.633-7.057h-8.497v14.114zM92.177 22.136l.36.36v26.282c0 10.585 6.265 16.058 13.969 16.058 7.633 0 13.897-5.473 13.897-16.058v-26.282l.36-.36h7.705l.36.36v27.723c0 14.762-10.081 23.403-22.322 23.403s-22.322-8.641-22.322-23.403v-27.723l.36-.36h7.633zM94.883 1.92l.64.64v8.576l-.64.64h-30.209v79.107l-.64.641h-8.704l-.64-.641v-79.106h-30.21l-.64-.641v-8.576l.64-.64h70.403z"/><path fill="#333" d="M83.386 81.281l4.975 4.977-4.903 4.902h42.932l-4.904-4.902 4.976-4.977 4.976 4.977-4.903 4.902h42.932l-4.904-4.902 4.977-4.977 4.975 4.977-4.903 4.902h42.931l-4.903-4.902 4.976-4.977 4.976 4.977-4.903 4.902h42.932l-4.904-4.902 4.976-4.977 4.976 4.977-4.903 4.902h42.931l-4.903-4.902 4.976-4.977 4.976 4.977-4.904 4.902h42.931l-4.902-4.902 4.977-4.977 4.975 4.977-4.903 4.902h42.93l-4.903-4.902 4.976-4.977 4.975 4.977-4.902 4.902h42.932l-4.904-4.902 4.976-4.977h-344.615z"/><path fill="#333" d="M101.386 1.948l4.975 4.976-4.903 4.902h24.932l-4.904-4.902 4.976-4.976 4.976 4.976-4.903 4.902h42.932l-4.904-4.902 4.977-4.976 4.975 4.976-4.903 4.902h42.931l-4.903-4.902 4.976-4.976 4.976 4.976-4.903 4.902h42.932l-4.904-4.902 4.976-4.976 4.976 4.976-4.903 4.902h42.931l-4.903-4.902 4.976-4.976 4.976 4.976-4.904 4.902h42.931l-4.902-4.902 4.977-4.976 4.975 4.976-4.903 4.902h42.93l-4.903-4.902 4.976-4.976 4.975 4.976-4.902 4.902h42.932l-4.904-4.902 4.976-4.976h-326.615v.001z"/></svg>