<svg width="600" height="126" preserveAspectRatio="xMinYMin slice" viewBox="0 0 600 126" xmlns="http://www.w3.org/2000/svg" ><g stroke="none" fill-rule="evenodd"><path d="M0 0v132h600v-132h-600zm99.264 2.6l-.36.36 16.416 49.68.36.36h8.136l.36-.36 10.8-34.056 10.728 34.056.36.36h8.208l.36-.36 16.416-49.68-.36-.36h-8.712l-.36.36-11.52 36.792-10.584-36.072-.36-.36h-8.352l-.36.36-10.584 36.072-11.52-36.792-.36-.36h-8.712zm88.632 0l-.36.36-19.728 49.68.36.36h8.856l.36-.36 4.248-10.944h20.52l4.176 10.944.36.36h8.856l.36-.36-19.656-49.68-.36-.36h-7.992zm3.96 11.304l7.272 19.44h-14.472l7.2-19.44zm20.088-11.304l-.36.36v7.704l.36.36h15.624v41.616l.36.36h7.632l.36-.36v-41.616h15.624l.36-.36v-7.704l-.36-.36h-39.6zm49.104 0l-.36.36v49.68l.36.36h33.264l.36-.36v-7.704l-.36-.36h-25.272v-14.472h17.64l.36-.36v-7.704l-.36-.36h-17.64v-10.656h23.76l.36-.36v-7.704l-.36-.36h-31.752zm43.2 0l-.36.36v49.68l.36.36h7.632l.36-.36v-20.664h5.328l15.48 20.664.36.36h9.864l.36-.36-16.848-22.824c4.968-2.16 8.064-6.768 8.064-12.528 0-8.28-6.48-14.688-16.92-14.688h-13.68zm7.992 8.424h5.688c4.68 0 7.416 2.232 7.416 6.264s-2.736 6.336-7.416 6.336h-5.688v-12.6zm39.024-8.424l-.288.288v49.824l.288.288h29.736l.288-.288v-7.776l-.288-.36h-21.672v-41.688l-.288-.288h-7.776zm59.256-1.08c-14.76 0-26.64 11.664-26.64 26.28 0 14.616 11.88 26.28 26.64 26.28 14.688 0 26.64-11.664 26.64-26.28 0-14.616-11.952-26.28-26.64-26.28zm0 8.784c9.504 0 17.136 7.704 17.136 17.496 0 9.792-7.632 17.496-17.136 17.496s-17.136-7.704-17.136-17.496c0-9.792 7.632-17.496 17.136-17.496zm61.344-8.784c-14.76 0-26.64 11.664-26.64 26.28 0 14.616 11.88 26.28 26.64 26.28 14.688 0 26.64-11.664 26.64-26.28 0-14.616-11.952-26.28-26.64-26.28zm0 8.784c9.504 0 17.136 7.704 17.136 17.496 0 9.792-7.632 17.496-17.136 17.496s-17.136-7.704-17.136-17.496c0-9.792 7.632-17.496 17.136-17.496zm-242.028 85.696h-9.072c-1.44 2.592-3.528 6.12-5.976 9-1.944-2.088-5.76-6.12-7.488-8.424 5.04-2.664 8.496-6.768 8.496-12.096 0-7.128-5.472-12.96-12.888-12.96-7.416 0-12.888 5.832-12.888 12.96 0 4.392 1.368 7.272 4.176 10.512-5.4 3.24-8.568 7.632-8.568 13.464 0 8.712 6.984 15.624 15.984 15.624 5.4 0 10.08-2.52 13.68-6.48 1.944 1.944 3.816 3.816 5.616 5.4h11.232l.36-.432c-4.176-4.032-8.208-8.064-11.736-11.664 3.456-4.752 6.696-10.008 9.432-14.544l-.36-.36zm-27.864-4.176c-1.8-1.8-3.672-4.248-3.672-6.912 0-2.952 1.944-4.968 4.68-4.968 2.592 0 4.536 2.016 4.536 4.968s-2.664 5.112-5.544 6.912zm-2.736 9c3.312 3.528 6.624 7.344 10.08 10.8-2.016 2.52-4.752 4.032-7.704 4.032-3.96 0-7.272-3.312-7.272-7.2 0-3.456 2.016-5.832 4.896-7.632zm98.64-14.688v-9.504c-4.68-3.384-10.44-5.112-17.28-5.112-14.76 0-26.64 11.88-26.64 26.28s11.88 26.28 26.64 26.28c6.84 0 12.6-1.728 17.28-5.112v-9.504l-.36-.36c-4.68 3.96-10.512 6.192-16.92 6.192-9.504 0-17.136-7.776-17.136-17.496 0-9.72 7.632-17.496 17.136-17.496 6.408 0 12.24 2.232 16.92 6.192l.36-.36zm11.304-13.536l-.36.36v49.68l.36.36h7.632l.36-.36v-49.68l-.36-.36h-7.632zm17.136 0l-.36.36v7.704l.36.36h15.624v41.616l.36.36h7.632l.36-.36v-41.616h15.624l.36-.36v-7.704l-.36-.36h-39.6zm44.64 0l-.36.36 18.144 25.272v24.408l.36.36h7.632l.36-.36v-24.408l18.144-25.272-.36-.36h-9l-.576.36-12.384 16.92-12.384-16.92-.576-.36h-9z" fill="#CFD2D3"/></g></svg>