<svg width="600" height="56" preserveAspectRatio="xMinYMin slice" viewBox="0 0 600 56" xmlns="http://www.w3.org/2000/svg" ><g stroke="none" fill-rule="evenodd"><path d="M0 0v56h600v-56h-600zm151.32 2.6l-.36.36v49.68l.36.36h16.776c9.576 0 16.776-6.264 16.776-15.48 0-5.832-3.24-10.872-9.216-13.104 2.664-1.656 4.608-4.464 4.608-8.568 0-8.208-6.696-13.248-16.488-13.248h-12.456zm7.992 8.424h4.464c4.824 0 6.984 1.8 6.984 5.256 0 3.96-2.16 5.76-6.984 5.76h-4.464v-11.016zm0 19.44h8.496c4.68 0 7.632 2.664 7.632 7.056 0 4.608-2.952 7.056-7.632 7.056h-8.496v-14.112zm48.96-27.864l-.36.36-19.728 49.68.36.36h8.856l.36-.36 4.248-10.944h20.52l4.176 10.944.36.36h8.856l.36-.36-19.656-49.68-.36-.36h-7.992zm3.96 11.304l7.272 19.44h-14.472l7.2-19.44zm31.752-11.304l-.36.36v49.68l.36.36h7.632l.36-.36v-20.664h5.328l15.48 20.664.36.36h9.864l.36-.36-16.848-22.824c4.968-2.16 8.064-6.768 8.064-12.528 0-8.28-6.48-14.688-16.92-14.688h-13.68zm7.992 8.424h5.688c4.68 0 7.416 2.232 7.416 6.264s-2.736 6.336-7.416 6.336h-5.688v-12.6zm39.096-8.424l-.36.36v49.68l.36.36h7.632l.36-.36v-37.296l16.488 20.088h.72l16.416-20.088v37.296l.36.36h7.704l.36-.36v-49.68l-.36-.36h-7.488l-.72.36-16.632 20.448-16.704-20.448-.72-.36h-7.416zm77.4 0l-.36.36-19.728 49.68.36.36h8.856l.36-.36 4.248-10.944h20.52l4.176 10.944.36.36h8.856l.36-.36-19.656-49.68-.36-.36h-7.992zm3.96 11.304l7.272 19.44h-14.472l7.2-19.44zm31.752-11.304l-.36.36v49.68l.36.36h7.632l.36-.36v-36.144l27.72 36.144.72.36h8.064l.36-.36v-49.68l-.36-.36h-7.704l-.36.36v36.144l-27.72-36.144-.72-.36h-7.992z" fill="#CFD2D3"/></g></svg>