<svg width="600" height="56" preserveAspectRatio="xMinYMin slice" viewBox="0 0 600 56" xmlns="http://www.w3.org/2000/svg" ><g stroke="none" fill-rule="evenodd"><path d="M0 0v56h600v-56h-600zm179.724 16.136v-9.504c-4.68-3.384-10.44-5.112-17.28-5.112-14.76 0-26.64 11.88-26.64 26.28s11.88 26.28 26.64 26.28c6.84 0 12.6-1.728 17.28-5.112v-9.504l-.36-.36c-4.68 3.96-10.512 6.192-16.92 6.192-9.504 0-17.136-7.776-17.136-17.496 0-9.72 7.632-17.496 17.136-17.496 6.408 0 12.24 2.232 16.92 6.192l.36-.36zm11.304-13.536l-.36.36v49.68l.36.36h33.264l.36-.36v-7.704l-.36-.36h-25.272v-14.472h17.64l.36-.36v-7.704l-.36-.36h-17.64v-10.656h23.76l.36-.36v-7.704l-.36-.36h-31.752zm43.2 0l-.36.36v49.68l.36.36h7.632l.36-.36v-36.144l27.72 36.144.72.36h8.064l.36-.36v-49.68l-.36-.36h-7.704l-.36.36v36.144l-27.72-36.144-.72-.36h-7.992zm54 0l-.36.36v7.704l.36.36h15.624v41.616l.36.36h7.632l.36-.36v-41.616h15.624l.36-.36v-7.704l-.36-.36h-39.6zm49.104 0l-.36.36v49.68l.36.36h7.632l.36-.36v-20.664h5.328l15.48 20.664.36.36h9.864l.36-.36-16.848-22.824c4.968-2.16 8.064-6.768 8.064-12.528 0-8.28-6.48-14.688-16.92-14.688h-13.68zm7.992 8.424h5.688c4.68 0 7.416 2.232 7.416 6.264s-2.736 6.336-7.416 6.336h-5.688v-12.6zm54.36-8.424l-.36.36-19.728 49.68.36.36h8.856l.36-.36 4.248-10.944h20.52l4.176 10.944.36.36h8.856l.36-.36-19.656-49.68-.36-.36h-7.992zm3.96 11.304l7.272 19.44h-14.472l7.2-19.44zm31.68-11.304l-.288.288v49.824l.288.288h29.736l.288-.288v-7.776l-.288-.36h-21.672v-41.688l-.288-.288h-7.776z" fill="#CFD2D3"/></g></svg>