<svg width="600" height="56" preserveAspectRatio="xMinYMin slice" viewBox="0 0 600 56" xmlns="http://www.w3.org/2000/svg" ><g stroke="none" fill-rule="evenodd"><path d="M0 0v56h600v-56h-600zm127.308 2.6l-.36.36 19.296 49.68.36.36h7.992l.36-.36 19.296-49.68-.36-.36h-8.712l-.36.36-14.256 37.656-14.184-37.656-.36-.36h-8.712zm54.648 0l-.36.36v49.68l.36.36h7.632l.36-.36v-49.68l-.36-.36h-7.632zm61.848 13.536v-9.504c-4.68-3.384-10.44-5.112-17.28-5.112-14.76 0-26.64 11.88-26.64 26.28s11.88 26.28 26.64 26.28c6.84 0 12.6-1.728 17.28-5.112v-9.504l-.36-.36c-4.68 3.96-10.512 6.192-16.92 6.192-9.504 0-17.136-7.776-17.136-17.496 0-9.72 7.632-17.496 17.136-17.496 6.408 0 12.24 2.232 16.92 6.192l.36-.36zm8.28-13.536l-.36.36v7.704l.36.36h15.624v41.616l.36.36h7.632l.36-.36v-41.616h15.624l.36-.36v-7.704l-.36-.36h-39.6zm73.512-1.08c-14.76 0-26.64 11.664-26.64 26.28 0 14.616 11.88 26.28 26.64 26.28 14.688 0 26.64-11.664 26.64-26.28 0-14.616-11.952-26.28-26.64-26.28zm0 8.784c9.504 0 17.136 7.704 17.136 17.496 0 9.792-7.632 17.496-17.136 17.496s-17.136-7.704-17.136-17.496c0-9.792 7.632-17.496 17.136-17.496zm36.936-7.704l-.36.36v49.68l.36.36h7.632l.36-.36v-20.664h5.328l15.48 20.664.36.36h9.864l.36-.36-16.848-22.824c4.968-2.16 8.064-6.768 8.064-12.528 0-8.28-6.48-14.688-16.92-14.688h-13.68zm7.992 8.424h5.688c4.68 0 7.416 2.232 7.416 6.264s-2.736 6.336-7.416 6.336h-5.688v-12.6zm39.096-8.424l-.36.36v49.68l.36.36h7.632l.36-.36v-49.68l-.36-.36h-7.632zm35.424 0l-.36.36-19.728 49.68.36.36h8.856l.36-.36 4.248-10.944h20.52l4.176 10.944.36.36h8.856l.36-.36-19.656-49.68-.36-.36h-7.992zm3.96 11.304l7.272 19.44h-14.472l7.2-19.44z" fill="#CFD2D3"/></g></svg>