<svg width="600" height="56" preserveAspectRatio="xMinYMin slice" viewBox="0 0 600 56" xmlns="http://www.w3.org/2000/svg" ><g stroke="none" fill-rule="evenodd"><path d="M0 0v56h600v-56h-600zm36.336 2.6l-.36.36v49.68l.36.36h7.632l.36-.36v-22.536h25.56v22.536l.36.36h7.704l.36-.36v-49.68l-.36-.36h-7.704l-.36.36v18.72h-25.56v-18.72l-.36-.36h-7.632zm69.408 0l-.36.36-19.728 49.68.36.36h8.856l.36-.36 4.248-10.944h20.52l4.176 10.944.36.36h8.856l.36-.36-19.656-49.68-.36-.36h-7.992zm3.96 11.304l7.272 19.44h-14.472l7.2-19.44zm31.752-11.304l-.36.36v49.68l.36.36h7.632l.36-.36v-37.296l16.488 20.088h.72l16.416-20.088v37.296l.36.36h7.704l.36-.36v-49.68l-.36-.36h-7.488l-.72.36-16.632 20.448-16.704-20.448-.72-.36h-7.416zm62.136 0l-.36.36v49.68l.36.36h7.632l.36-.36v-37.296l16.488 20.088h.72l16.416-20.088v37.296l.36.36h7.704l.36-.36v-49.68l-.36-.36h-7.488l-.72.36-16.632 20.448-16.704-20.448-.72-.36h-7.416zm62.136 0l-.36.36v49.68l.36.36h33.264l.36-.36v-7.704l-.36-.36h-25.272v-14.472h17.64l.36-.36v-7.704l-.36-.36h-17.64v-10.656h23.76l.36-.36v-7.704l-.36-.36h-31.752zm43.2 0l-.36.36v49.68l.36.36h7.632l.36-.36v-20.664h5.328l15.48 20.664.36.36h9.864l.36-.36-16.848-22.824c4.968-2.16 8.064-6.768 8.064-12.528 0-8.28-6.48-14.688-16.92-14.688h-13.68zm7.992 8.424h5.688c4.68 0 7.416 2.232 7.416 6.264s-2.736 6.336-7.416 6.336h-5.688v-12.6zm56.448 2.952l6.408-4.752c-3.168-4.752-7.344-7.704-13.248-7.704-7.704 0-13.752 5.76-13.752 13.392 0 14.04 21.672 13.464 21.672 22.968 0 4.464-2.952 7.416-7.2 7.416-3.672 0-6.48-2.016-8.496-6.768h-.72l-6.624 4.824c2.52 6.768 8.496 10.728 15.84 10.728 9.36 0 16.56-7.344 16.56-16.2 0-16.56-21.672-16.344-21.672-22.968 0-2.736 1.656-4.608 4.392-4.608 2.448 0 4.176 1.296 6.12 3.672h.72zm20.304-11.376l-.36.36v49.68l.36.36h7.632l.36-.36v-37.296l16.488 20.088h.72l16.416-20.088v37.296l.36.36h7.704l.36-.36v-49.68l-.36-.36h-7.488l-.72.36-16.632 20.448-16.704-20.448-.72-.36h-7.416zm62.136 0l-.36.36v49.68l.36.36h7.632l.36-.36v-49.68l-.36-.36h-7.632zm17.136 0l-.36.36v7.704l.36.36h15.624v41.616l.36.36h7.632l.36-.36v-41.616h15.624l.36-.36v-7.704l-.36-.36h-39.6zm49.104 0l-.36.36v49.68l.36.36h7.632l.36-.36v-22.536h25.56v22.536l.36.36h7.704l.36-.36v-49.68l-.36-.36h-7.704l-.36.36v18.72h-25.56v-18.72l-.36-.36h-7.632z" fill="#CFD2D3"/></g></svg>