<svg width="600" height="56" preserveAspectRatio="xMinYMin slice" viewBox="0 0 600 56" xmlns="http://www.w3.org/2000/svg" ><g stroke="none" fill-rule="evenodd"><path d="M0 0v56h600v-56h-600zm72.104 1.52c-14.76 0-26.64 11.664-26.64 26.28 0 14.616 11.88 26.28 26.64 26.28 14.688 0 26.64-11.664 26.64-26.28 0-14.616-11.952-26.28-26.64-26.28zm0 8.784c9.504 0 17.136 7.704 17.136 17.496 0 9.792-7.632 17.496-17.136 17.496s-17.136-7.704-17.136-17.496c0-9.792 7.632-17.496 17.136-17.496zm29.592-7.704l-.36.36 19.296 49.68.36.36h7.992l.36-.36 19.296-49.68-.36-.36h-8.712l-.36.36-14.256 37.656-14.184-37.656-.36-.36h-8.712zm54.648 0l-.36.36v49.68l.36.36h33.264l.36-.36v-7.704l-.36-.36h-25.272v-14.472h17.64l.36-.36v-7.704l-.36-.36h-17.64v-10.656h23.76l.36-.36v-7.704l-.36-.36h-31.752zm43.2 0l-.36.36v49.68l.36.36h7.632l.36-.36v-20.664h5.328l15.48 20.664.36.36h9.864l.36-.36-16.848-22.824c4.968-2.16 8.064-6.768 8.064-12.528 0-8.28-6.48-14.688-16.92-14.688h-13.68zm7.992 8.424h5.688c4.68 0 7.416 2.232 7.416 6.264s-2.736 6.336-7.416 6.336h-5.688v-12.6zm78.048 4.032v-9.432c-4.968-3.168-11.16-4.104-18-4.104-15.48 0-27.36 11.88-27.36 26.28 0 14.76 12.24 26.28 27.72 26.28 6.48 0 12.672-1.656 18.072-5.184v-24.552l-.36-.36h-16.92l-.36.36v7.632l.36.36h8.856v11.088c-2.88 1.296-6.48 1.872-9.648 1.872-10.728 0-18.216-7.632-18.216-17.496 0-9.72 7.272-17.496 17.856-17.496 6.12 0 12.672 1.296 17.64 5.112l.36-.36zm11.808-12.456l-.36.36v49.68l.36.36h7.632l.36-.36v-20.664h5.328l15.48 20.664.36.36h9.864l.36-.36-16.848-22.824c4.968-2.16 8.064-6.768 8.064-12.528 0-8.28-6.48-14.688-16.92-14.688h-13.68zm7.992 8.424h5.688c4.68 0 7.416 2.232 7.416 6.264s-2.736 6.336-7.416 6.336h-5.688v-12.6zm59.328-9.504c-14.76 0-26.64 11.664-26.64 26.28 0 14.616 11.88 26.28 26.64 26.28 14.688 0 26.64-11.664 26.64-26.28 0-14.616-11.952-26.28-26.64-26.28zm0 8.784c9.504 0 17.136 7.704 17.136 17.496 0 9.792-7.632 17.496-17.136 17.496s-17.136-7.704-17.136-17.496c0-9.792 7.632-17.496 17.136-17.496zm36.936-7.704l-.36.36v27.72c0 14.76 10.08 23.4 22.32 23.4s22.32-8.64 22.32-23.4v-27.72l-.36-.36h-7.704l-.36.36v26.28c0 10.584-6.264 16.056-13.896 16.056-7.704 0-13.968-5.472-13.968-16.056v-26.28l-.36-.36h-7.632zm56.376 0l-.36.36v49.68l.36.36h7.632l.36-.36v-36.144l27.72 36.144.72.36h8.064l.36-.36v-49.68l-.36-.36h-7.704l-.36.36v36.144l-27.72-36.144-.72-.36h-7.992zm57.024 0l-.36.36v49.68l.36.36h16.92c15.48 0 26.64-11.232 26.64-25.2s-11.16-25.2-26.64-25.2h-16.92zm7.992 8.424h8.928c10.152 0 17.28 7.128 17.28 16.776s-7.128 16.776-17.28 16.776h-8.928v-33.552z" fill="#CFD2D3"/></g></svg>