<svg width="600" height="56" preserveAspectRatio="xMinYMin slice" viewBox="0 0 600 56" xmlns="http://www.w3.org/2000/svg" ><g stroke="none" fill-rule="evenodd"><path d="M0 0v56h600v-56h-600zm144.984 2.6l-.36.36v49.68l.36.36h16.92c15.48 0 26.64-11.232 26.64-25.2s-11.16-25.2-26.64-25.2h-16.92zm7.992 8.424h8.928c10.152 0 17.28 7.128 17.28 16.776s-7.128 16.776-17.28 16.776h-8.928v-33.552zm45.792-8.424l-.36.36v49.68l.36.36h7.632l.36-.36v-49.68l-.36-.36h-7.632zm38.952 11.376l6.408-4.752c-3.168-4.752-7.344-7.704-13.248-7.704-7.704 0-13.752 5.76-13.752 13.392 0 14.04 21.672 13.464 21.672 22.968 0 4.464-2.952 7.416-7.2 7.416-3.672 0-6.48-2.016-8.496-6.768h-.72l-6.624 4.824c2.52 6.768 8.496 10.728 15.84 10.728 9.36 0 16.56-7.344 16.56-16.2 0-16.56-21.672-16.344-21.672-22.968 0-2.736 1.656-4.608 4.392-4.608 2.448 0 4.176 1.296 6.12 3.672h.72zm14.4-11.376l-.36.36v7.704l.36.36h15.624v41.616l.36.36h7.632l.36-.36v-41.616h15.624l.36-.36v-7.704l-.36-.36h-39.6zm49.104 0l-.36.36v49.68l.36.36h7.632l.36-.36v-20.664h5.328l15.48 20.664.36.36h9.864l.36-.36-16.848-22.824c4.968-2.16 8.064-6.768 8.064-12.528 0-8.28-6.48-14.688-16.92-14.688h-13.68zm7.992 8.424h5.688c4.68 0 7.416 2.232 7.416 6.264s-2.736 6.336-7.416 6.336h-5.688v-12.6zm39.096-8.424l-.36.36v49.68l.36.36h7.632l.36-.36v-49.68l-.36-.36h-7.632zm61.848 13.536v-9.504c-4.68-3.384-10.44-5.112-17.28-5.112-14.76 0-26.64 11.88-26.64 26.28s11.88 26.28 26.64 26.28c6.84 0 12.6-1.728 17.28-5.112v-9.504l-.36-.36c-4.68 3.96-10.512 6.192-16.92 6.192-9.504 0-17.136-7.776-17.136-17.496 0-9.72 7.632-17.496 17.136-17.496 6.408 0 12.24 2.232 16.92 6.192l.36-.36zm8.28-13.536l-.36.36v7.704l.36.36h15.624v41.616l.36.36h7.632l.36-.36v-41.616h15.624l.36-.36v-7.704l-.36-.36h-39.6z" fill="#CFD2D3"/></g></svg>