<svg width="600" height="56" preserveAspectRatio="xMinYMin slice" viewBox="0 0 600 56" xmlns="http://www.w3.org/2000/svg"><g stroke="none" fill-rule="evenodd"><path d="M0 0v56h600v-56h-600zm110.264 2.6l-.36.36v49.68l.36.36h16.776c9.576 0 16.776-6.264 16.776-15.48 0-5.832-3.24-10.872-9.216-13.104 2.664-1.656 4.608-4.464 4.608-8.568 0-8.208-6.696-13.248-16.488-13.248h-12.456zm7.992 8.424h4.464c4.824 0 6.984 1.8 6.984 5.256 0 3.96-2.16 5.76-6.984 5.76h-4.464v-11.016zm0 19.44h8.496c4.68 0 7.632 2.664 7.632 7.056 0 4.608-2.952 7.056-7.632 7.056h-8.496v-14.112zm48.96-27.864l-.36.36-19.728 49.68.36.36h8.856l.36-.36 4.248-10.944h20.52l4.176 10.944.36.36h8.856l.36-.36-19.656-49.68-.36-.36h-7.992zm3.96 11.304l7.272 19.44h-14.472l7.2-19.44zm31.752-11.304l-.36.36v49.68l.36.36h7.632l.36-.36v-22.536l22.68 22.536.72.36h11.304l.36-.36-27.864-27.36 24.696-22.32-.36-.36h-10.728l-.72.36-20.088 17.856v-17.856l-.36-.36h-7.632zm50.76 0l-.36.36v49.68l.36.36h33.264l.36-.36v-7.704l-.36-.36h-25.272v-14.472h17.64l.36-.36v-7.704l-.36-.36h-17.64v-10.656h23.76l.36-.36v-7.704l-.36-.36h-31.752zm43.2 0l-.36.36v49.68l.36.36h7.632l.36-.36v-20.664h5.328l15.48 20.664.36.36h9.864l.36-.36-16.848-22.824c4.968-2.16 8.064-6.768 8.064-12.528 0-8.28-6.48-14.688-16.92-14.688h-13.68zm7.992 8.424h5.688c4.68 0 7.416 2.232 7.416 6.264s-2.736 6.336-7.416 6.336h-5.688v-12.6zm39.024-8.424l-.288.288v49.824l.288.288h29.736l.288-.288v-7.776l-.288-.36h-21.672v-41.688l-.288-.288h-7.776zm59.256-1.08c-14.76 0-26.64 11.664-26.64 26.28 0 14.616 11.88 26.28 26.64 26.28 14.688 0 26.64-11.664 26.64-26.28 0-14.616-11.952-26.28-26.64-26.28zm0 8.784c9.504 0 17.136 7.704 17.136 17.496 0 9.792-7.632 17.496-17.136 17.496s-17.136-7.704-17.136-17.496c0-9.792 7.632-17.496 17.136-17.496zm61.344-8.784c-14.76 0-26.64 11.664-26.64 26.28 0 14.616 11.88 26.28 26.64 26.28 14.688 0 26.64-11.664 26.64-26.28 0-14.616-11.952-26.28-26.64-26.28zm0 8.784c9.504 0 17.136 7.704 17.136 17.496 0 9.792-7.632 17.496-17.136 17.496s-17.136-7.704-17.136-17.496c0-9.792 7.632-17.496 17.136-17.496z" fill="#cfd2d3"/></g></svg>